<svg width="141" height="103" viewBox="0 0 141 103" fill="none" xmlns="http://www.w3.org/2000/svg">
<path d="M105.666 5.22187C104.462 6.96651 102.856 8.08403 100.628 8.22071C98.0477 8.38151 95.4672 8.7031 92.8868 8.75938C86.6937 8.88801 80.7627 10.0297 75.0202 12.3934C69.7446 14.5561 65.3128 17.7479 61.7902 22.1215C59.816 24.5736 58.0629 27.2027 56.1296 29.8719C53.7703 29.3412 51.1899 28.7061 48.5849 28.1915C46.1601 27.7172 44.0056 26.7203 41.8511 25.5465C37.7797 23.3275 35.1829 19.5327 31.7095 16.6866C30.3824 15.5932 29.4895 15.2555 28.0231 16.1881C26.7124 17.0243 25.8277 18.182 25.6147 19.7256C25.4591 20.8673 25.4754 22.0411 25.2543 23.1667C25.0249 24.3566 24.8938 25.7153 24.2139 26.6479C22.2232 29.3975 20.1671 32.1471 17.7996 34.5832C15.3748 37.0835 12.4749 39.1337 9.92717 41.5215C3.18522 47.8569 0.309863 55.9851 0.0149535 64.8208C-0.230804 72.1209 2.56264 78.6975 7.65802 84.1726C12.0489 88.8919 17.3245 92.4696 23.0506 95.4444C28.1132 98.0734 33.4872 99.5125 39.2133 99.9306C41.6135 100.107 44.1284 100.453 46.3157 101.354C50.3953 103.026 54.3602 101.659 58.3742 101.506C58.8002 101.49 59.2098 101.104 59.6194 100.879C60.2338 100.542 60.8154 100.115 61.4707 99.8823C62.7978 99.408 63.7235 98.5397 64.4444 97.382C65.5176 95.6454 66.902 94.2545 68.7779 93.2817C70.0149 92.6385 71.1044 91.7139 72.194 90.8376C75.3151 88.3533 77.9693 85.4429 80.3204 82.2189C87.177 86.1343 94.6644 87.1152 102.226 86.673C112.105 86.0861 120.977 82.436 128.743 76.382C133.871 72.3863 137.361 67.2971 139.188 61.0904C140.171 57.7619 140.138 54.3932 140.105 51.0004C140.048 43.6601 137.975 36.8745 134.231 30.5472C132.085 26.9213 129.48 23.6491 126.326 20.8351C122.714 17.6031 120.87 13.7601 121.698 8.89605C121.812 8.21267 121.927 7.52929 122.066 6.85395C122.64 3.98374 121.223 1.91752 119.273 0.108566H109.123C107.968 1.80496 106.838 3.52548 105.666 5.22187ZM29.1536 16.8474C29.809 16.5419 30.4725 16.5258 30.6445 17.3057C30.7019 17.579 30.1366 18.1418 29.7352 18.3106C28.8751 18.6805 27.933 18.8815 26.9336 19.1789C27.3514 18.0373 28.1214 17.3298 29.1536 16.8474ZM62.593 97.0684C60.3648 98.4191 58.3414 100.244 55.4251 100.027C54.737 99.9788 53.9997 100.083 53.328 100.268C51.1735 100.863 49.0846 100.574 47.1349 99.6653C44.3332 98.3548 41.4169 97.7036 38.345 97.3176C32.9301 96.6423 27.7938 95.0022 23.1489 92.0596C20.9043 90.6446 18.6024 89.31 16.2841 88.0076C13.2449 86.3031 10.7382 83.9796 8.35432 81.5195C5.72472 78.8181 4.48774 75.4012 3.43098 71.9119C3.11969 70.8828 2.93946 69.8055 2.64455 68.7764C2.01378 66.5896 1.76802 64.4027 2.34964 62.1677C3.15245 59.1126 3.75047 56.0012 4.72531 53.0023C5.9459 49.2638 8.41167 46.2409 11.0822 43.3787C11.3116 43.1295 11.6147 42.9526 12.1062 42.9526C11.4427 43.8691 10.7955 44.8098 10.1074 45.7102C7.40406 49.2236 5.83121 53.2596 4.82361 57.4725C3.48013 63.0923 4.21741 68.5593 7.19927 73.544C9.33736 77.1217 11.7785 80.5386 14.2689 83.8992C16.3824 86.7534 19.2578 88.7231 22.6001 90.122C24.8283 91.0546 26.9336 92.2847 29.0717 93.4183C31.6603 94.7931 34.3555 95.6695 37.3619 95.6856C40.311 95.6936 43.1208 96.3931 45.5293 98.2101C46.6516 99.0542 47.9295 99.3115 49.3139 99.0382C50.6328 98.7809 51.8944 98.596 53.2379 99.1105C53.8031 99.3276 54.6141 99.0542 55.2695 98.8532C57.8417 98.0895 60.3976 97.2694 63.0272 96.4493C62.8961 96.6423 62.806 96.9478 62.593 97.0684ZM73.6849 87.9272C72.2677 89.1492 70.8997 90.4597 69.335 91.4566C67.8359 92.4053 66.0828 92.936 64.4854 93.7399C60.414 95.7901 60.4304 95.8062 59.6358 95.5328C59.0951 96.0313 58.5626 96.5378 57.596 97.4382C57.8827 96.0232 58.0547 95.1791 58.2267 94.3349C58.1121 94.2866 57.9974 94.2304 57.8827 94.1821C57.596 94.7288 57.3093 95.2755 57.0225 95.8222C56.1214 97.5347 54.9172 97.9528 52.9757 97.591C51.8616 97.382 50.6492 97.4302 49.5187 97.591C46.971 97.9608 44.9313 97.1649 43.2273 95.3479C42.9652 95.3157 42.7031 95.2755 42.4409 95.2434C37.665 95.0826 33.1267 94.1419 28.9324 91.7461C27.0401 90.6687 25.0413 89.7281 23.0179 88.908C20.036 87.7021 17.431 85.9735 15.5632 83.441C12.909 79.8231 10.2549 76.173 8.03484 72.2898C4.95468 66.9031 4.85637 61.1306 6.76509 55.2856C8.24783 50.7512 10.6399 46.7313 13.5316 42.9285C15.6451 40.1547 17.6931 37.373 20.3473 35.0254C21.7153 33.8194 22.6574 32.1552 24.132 30.708C24.0582 31.3833 24.0828 32.0908 23.8944 32.7421C23.1407 35.3309 22.3625 37.9197 21.5187 40.4763C17.7914 51.7803 17.8733 63.0521 21.8792 74.2676C24.0091 80.2331 28.3098 84.5826 33.184 88.4658C33.397 88.6347 33.7247 88.6507 34.0032 88.7311C33.9787 88.7151 33.9623 88.6909 33.9377 88.6668C33.9541 88.6749 33.9787 88.6829 33.995 88.699C33.3643 87.9593 32.8072 87.1393 32.0781 86.5122C24.5661 79.9919 20.9699 71.526 20.5111 61.9989C20.1671 54.8836 20.8142 47.7041 23.321 40.806C24.6317 37.2041 25.4181 33.4013 26.2209 29.6467C26.696 27.4117 26.6633 25.0721 26.9991 22.7968C27.2777 20.9477 27.933 19.3558 30.3414 19.3639C30.8821 19.3639 31.4146 18.8413 32.2338 18.4152C32.8728 19.0825 33.7247 19.6935 34.1917 20.5135C35.7235 23.2069 37.9108 25.1686 40.4503 26.9695C43.17 28.9071 45.5129 31.3351 48.0688 33.4978C49.3139 34.551 50.6328 35.5238 51.9763 36.4484C54.5486 38.2172 57.17 39.9136 59.7586 41.6501C63.4122 44.1103 66.1074 47.4147 68.0816 51.2336C71.4567 57.7619 73.8078 64.5796 73.431 72.0566C73.2098 76.5589 72.4151 80.9245 70.531 85.073C70.0968 86.0217 69.7036 86.9865 69.5398 88.0397C71.0553 85.7162 72.6363 83.4249 73.349 80.7476C75.2332 73.6485 75.1758 66.5172 72.9968 59.5226C71.9728 56.2263 70.4737 53.0506 68.9172 49.9472C65.9927 44.1344 60.971 40.2914 55.5152 36.9549C52.2467 34.953 49.1665 32.7501 46.0126 29.7191C47.0366 29.9925 47.651 30.0246 48.1179 30.2899C53.0658 33.1039 58.4397 35.2826 62.8798 38.8764C66.263 41.61 69.507 44.5686 72.4561 47.7443C78.1003 53.8385 79.5012 61.3235 78.9851 69.2829C78.682 73.9701 77.3467 78.3679 74.9383 82.444C74.7171 82.8139 74.6024 83.24 74.4467 83.6339C74.586 83.7063 74.7171 83.7867 74.8563 83.859C75.6264 82.6531 76.5275 81.5114 77.1501 80.2411C79.1653 76.0685 79.9681 71.6144 80.0746 67.0157C80.2958 57.4725 76.5029 49.7462 69.4579 43.2501C64.8212 38.9729 59.816 35.3791 54.0734 32.7421C53.1641 32.324 52.3122 31.7773 51.1489 31.1341C60.2665 32.1793 70.3426 36.2153 77.0108 46.9725C85.0225 59.8924 83.9002 72.748 75.3151 85.2258C75.8639 84.7756 76.421 84.3173 76.9453 83.8912C76.462 85.073 75.397 86.4478 73.6849 87.9272ZM73.8651 41.2884C75.5527 42.2773 76.7978 43.7164 77.8382 45.2681C83.2121 53.2596 85.3994 61.9506 83.4169 71.4376C83.1138 72.9008 82.9254 74.5329 81.5737 75.6022C81.754 74.7339 81.9096 73.8575 82.139 73.0053C84.9488 62.6742 82.5977 53.3641 76.3555 44.8259C75.5117 43.6681 74.5696 42.5747 73.8651 41.2884ZM80.0828 78.593C80.5333 77.7166 80.9757 76.8323 81.4263 75.9559C81.1805 76.9046 80.9266 77.8533 80.6808 78.802C80.4842 78.7297 80.2876 78.6573 80.0828 78.593ZM113.784 0.518595C114.898 0.824107 116.029 1.0653 117.168 1.2663C118.863 1.56377 119.183 2.97073 120.125 4.65105C118.314 4.04002 117.241 2.44814 116.013 3.84707C114.89 3.17173 114.014 2.6411 113.137 2.11851C112.998 2.27127 112.859 2.43206 112.719 2.58482C113.391 3.34056 114.006 4.15258 114.759 4.81988C115.128 5.14951 115.734 5.37463 116.242 5.39071C117.52 5.44699 118.814 5.35855 120.403 5.31835C120.281 6.23488 120.125 6.95846 120.109 7.68205C120.035 9.97338 119.74 12.313 120.043 14.5641C120.494 17.9489 122.935 20.3045 125.343 22.5315C128.333 25.3053 130.938 28.3523 132.904 31.914C137.508 40.2593 139.335 49.1593 137.729 58.5015C136.435 66.0268 132.257 72.0245 125.958 76.5509C118.88 81.6401 110.942 84.7032 102.226 85.2178C94.9839 85.6439 87.816 84.7113 80.8856 81.3506C84.3426 74.8062 86.8166 68.0528 85.7434 60.5597C84.6948 53.2918 81.8195 46.8117 76.9535 41.0552C77.5515 39.1498 78.8458 37.6142 80.3531 36.2796C84.2689 32.8144 88.4959 29.7754 93.1325 27.2509C98.1624 24.5174 102.865 21.3014 106.502 16.8072C106.944 16.2685 107.354 15.7058 107.755 15.1269C107.87 14.9581 107.886 14.7169 108.107 13.945C107.108 14.9902 106.485 15.6736 105.822 16.3168C105.093 17.0243 104.396 17.7639 103.577 18.3589C99.8499 21.0361 96.2373 23.9224 92.2887 26.254C86.2431 29.8236 80.5989 33.7631 76.2736 39.3106C76.1343 39.4874 75.9213 39.6 75.7247 39.7608C73.4228 38.0162 71.1372 36.2957 68.6878 34.4385C69.1548 32.4285 71.4157 31.7773 72.366 30.0648C70.5556 31.0698 68.8271 32.1471 67.6884 34.1249C65.6322 33.2325 63.658 32.3722 61.5527 31.4557C63.273 27.6931 65.8043 24.7425 69.4415 22.2501C68.0161 22.1295 67.3607 22.8531 66.7791 23.424C64.5673 25.6108 62.4374 27.87 60.3075 30.1291C59.8651 30.5954 59.5457 31.1582 58.792 30.6758C61.9623 21.5426 73.8078 12.1441 88.84 11.1954C84.9324 12.7391 80.9839 14.1862 77.6006 16.9117C78.1003 16.759 78.6165 16.6464 79.0998 16.4454C81.8441 15.3038 84.5474 14.0415 87.3326 13.0205C88.6188 12.5542 90.0687 12.3692 91.4532 12.3451C95.7785 12.2728 99.8253 11.1954 103.708 9.4106C105.388 8.63878 106.682 7.41673 107.608 5.83289C108.345 4.56261 109.066 3.27624 109.819 2.014C110.745 0.494476 112.039 0.044248 113.784 0.518595Z" fill="#DAE6DA"/>
<path d="M45.7667 95.7177C45.8486 95.5248 45.9223 95.3318 45.996 95.1389C44.2839 94.962 43.2599 93.8525 42.0311 92.9842C39.5736 91.2476 36.69 90.0899 33.9867 88.699C33.9703 88.691 33.9457 88.6829 33.9293 88.6668C33.9539 88.6829 33.9703 88.707 33.9948 88.7312C34.5765 89.2618 35.1007 89.8808 35.7643 90.2909C37.329 91.2637 38.9674 92.132 40.573 93.0405C35.7152 91.8184 30.759 90.8778 26.786 87.5895C25.5326 86.5524 24.3284 85.4429 22.9849 84.5263C17.3161 80.6753 14.7274 74.9992 13.2693 68.7121C11.1148 59.4181 13.3348 50.8718 18.0943 42.7838C19.405 40.5568 20.4946 38.2011 21.6906 35.9098C21.1991 35.9258 20.9533 36.0786 20.8059 36.3037C20.2406 37.1398 19.7163 37.9921 19.1675 38.8362C18.5367 39.8091 17.9469 40.814 17.2588 41.7386C13.515 46.7635 11.1967 52.3029 10.8117 58.5659C10.5168 63.4541 11.1394 68.1734 12.5894 72.9089C14.4571 79.0191 18.1926 83.4651 23.5256 86.8177C25.3032 87.9352 27.1136 89.0206 28.9486 90.0497C30.2266 90.7652 31.5373 91.4727 32.9135 91.9792C36.0592 93.137 39.2541 94.1661 42.4325 95.2434C42.6947 95.2755 42.9568 95.3158 43.2189 95.3479C44.0709 95.4685 44.9229 95.5971 45.7667 95.7177Z" fill="#DAE6DA"/>
<path d="M104.192 10.2789C101.931 11.099 99.5713 11.6778 97.2611 12.3773C96.2617 12.6748 95.2787 13.0124 94.2793 13.326C94.3203 13.4868 94.3694 13.6395 94.4104 13.8003C96.7778 13.3742 99.1453 12.924 101.521 12.53C106.821 11.6457 109.049 7.86697 110.688 3.50941C110.532 3.42097 110.376 3.33253 110.229 3.23605C109.549 4.34554 108.804 5.41484 108.214 6.57257C107.321 8.3172 106.002 9.62768 104.192 10.2789Z" fill="#DAE6DA"/>
<path d="M66.5089 58.2603C62.6915 50.9602 56.7278 45.2921 51.2064 39.2945C49.7401 37.6945 48.1672 36.1589 46.4797 34.7922C42.3509 31.4476 38.386 27.9664 35.0274 23.85C34.7816 23.5525 34.4867 23.2872 34.1672 23.0702C33.004 22.2742 32.4715 22.4913 32.0537 23.9143C31.9718 24.1957 31.939 24.4932 31.8981 24.6862C31.1854 24.9434 30.6037 25.1685 30.0139 25.3776C28.5967 25.876 28.0151 26.8006 27.9004 28.3282C27.4007 34.7761 26.6634 41.2079 26.1965 47.6558C25.6476 55.1972 25.3281 62.7626 26.8928 70.2235C28.5066 77.9337 31.9226 84.6067 39.0414 88.9401C39.7541 89.3743 40.262 90.122 40.9092 90.6687C41.3269 91.0144 41.8349 91.2636 42.3018 91.5531C42.3919 91.4325 42.4738 91.3038 42.5639 91.1832C41.2532 89.8888 40.09 88.4095 38.6154 87.3322C32.9712 83.1997 29.8091 77.5397 28.3264 70.9953C26.3194 62.1757 26.7617 53.2354 27.6055 44.3113C28.0642 39.407 29.0145 34.5429 28.7442 29.5824C28.7196 29.1241 28.7278 28.6498 28.8097 28.1995C28.9899 27.283 30.2597 26.3906 31.4393 26.2137C32.4305 26.061 32.8647 26.6639 33.217 27.3956C33.9542 28.9231 34.6751 30.4668 35.396 31.9943C35.7237 32.6777 36.0513 33.3691 36.379 34.0525C36.6903 33.4415 36.7067 32.9591 36.5183 32.5651C35.6418 30.6838 34.757 28.8025 33.774 26.9695C33.2006 25.9002 32.5944 24.8952 33.5364 23.3998C34.0771 23.7616 34.3802 24.3002 34.7161 24.8148C36.8378 28.0146 39.6312 30.6115 42.5639 33.0556C50.207 39.415 56.8998 46.6589 62.798 54.5781C69.2532 63.253 71.4978 72.8847 68.9255 83.457C68.7289 84.2529 68.6143 85.065 68.4668 85.877C69.7529 84.6549 69.9987 83.0631 70.2772 81.5355C71.8009 73.359 70.3509 65.5926 66.5089 58.2603Z" fill="#DAE6DA"/>
<path d="M50.9851 48.2428C49.4368 46.6107 47.9704 44.8902 46.3484 43.3305C45.0049 42.0361 44.2185 42.0361 42.5638 42.9526C42.2361 43.1375 41.9412 43.3787 41.6708 43.5636C37.5175 41.1035 33.4379 42.7757 32.5696 47.2941C32.0207 50.1643 31.603 53.0667 31.2999 55.9771C30.0711 67.691 32.9055 78.3036 40.4748 87.5493C41.5971 88.9161 42.6948 90.4436 44.6363 90.9421C44.0547 90.0336 43.342 89.2537 42.6047 88.498C37.7469 83.5214 34.7077 77.6443 33.397 70.8748C31.8323 62.8029 32.8318 54.7631 33.7411 46.7233C33.8557 45.6942 34.421 44.7616 35.5105 44.4641C37.5011 43.9174 39.5901 42.9446 41.2776 45.1394C41.3759 45.2681 41.7118 45.2118 41.9002 45.244C42.7768 44.5686 43.6123 43.9254 44.6363 43.1375C45.7996 44.3033 46.8809 45.2922 47.8557 46.3695C48.847 47.4629 49.6907 48.685 50.6983 49.7623C54.3192 53.6536 57.3256 57.987 59.9716 62.5375C61.5199 65.1987 63.0763 67.9644 63.9693 70.8748C65.4438 75.7147 65.6404 80.7316 64.3707 85.7162C64.2314 86.279 64.2068 86.8659 64.1331 87.4448C64.2805 87.485 64.428 87.5252 64.5755 87.5654C64.9031 86.6649 65.3455 85.7806 65.5257 84.8479C66.8118 78.392 66.1565 72.1531 63.3712 66.1233C60.2911 59.4503 56.0395 53.5812 50.9851 48.2428Z" fill="#DAE6DA"/>
<path d="M48.7325 64.8851C47.815 64.3303 47.0449 63.5103 46.324 62.7143C45.8653 62.2078 45.6605 61.4923 45.2673 60.9215C44.4399 59.7075 42.9162 59.1447 41.5727 59.5547C40.2538 59.9487 40.1473 61.0742 40.0654 62.1596C39.9999 63.0038 40.0081 63.8479 40.0081 64.6921C39.9999 66.6136 40.1473 68.5432 39.9753 70.4486C39.6722 73.8012 40.2047 77.0412 41.0157 80.2652C41.1549 80.828 41.4416 81.3666 41.7365 82.1063C41.8758 81.7124 41.9905 81.5596 41.9659 81.431C41.8758 80.8199 41.7939 80.2089 41.63 79.622C40.5569 75.6343 40.3685 71.5661 40.5078 67.4819C40.5651 65.6408 40.819 63.7997 41.114 61.9827C41.3351 60.5758 42.2772 60.1979 43.4814 60.9617C43.8583 61.1948 44.2105 61.5807 44.3907 61.9747C45.2509 63.8962 46.7746 65.1906 48.4949 66.3081C49.9121 67.2247 50.9525 68.4226 51.6652 69.926C53.8606 74.573 54.7535 79.421 54.1637 84.5263C54.0163 85.8126 53.9671 87.107 53.8688 88.4015C56.6295 82.6771 55.8021 76.5588 53.3855 70.521C52.4516 68.1573 50.977 66.2438 48.7325 64.8851Z" fill="#DAE6DA"/>
</svg>
