<svg width="194" height="105" viewBox="0 0 194 105" fill="none" xmlns="http://www.w3.org/2000/svg">
<path d="M192.873 51.2308C194.444 50.1053 194.364 48.6759 192.689 47.618C190.636 46.3124 188.366 46.2786 186.038 46.6387C184.386 46.8976 182.735 47.1115 180.889 46.8976C181.267 46.5149 181.611 46.076 182.047 45.7608C184.558 43.9263 187.116 42.1593 189.604 40.2797C190.247 39.7957 190.854 39.0642 191.107 38.3326C191.313 37.7361 191.187 36.7682 190.786 36.2954C189.73 35.0461 188.308 34.1795 186.554 34.3821C183.951 34.686 181.313 34.9223 178.779 35.5301C172.334 37.0833 165.912 37.7811 159.352 36.3179C157.448 35.8903 155.476 35.7327 153.572 35.3162C150.544 34.6634 147.528 34.5509 144.455 35.0236C143.698 35.1362 142.781 34.9336 142.093 34.5847C138.996 33.0202 136.026 31.1857 132.872 29.7788C128.262 27.7192 124.18 24.8716 120.005 22.1479C115.453 19.1766 110.59 16.8243 105.556 14.7647C100.407 12.66 95.0625 11.3094 89.5465 10.6791C81.9776 9.82375 75.0395 7.31387 68.4569 3.58847C66.3583 2.39544 63.9271 1.73143 61.6106 0.943579C60.8422 0.684715 59.9248 0.707208 59.0991 0.785993C56.1403 1.08988 55.2229 2.68808 56.5532 5.25422C57.161 6.43599 57.8835 7.58401 58.6633 8.67574C60.4982 11.2869 62.4019 13.8418 64.2711 16.4304C66.3239 19.2554 68.8927 21.5514 71.7597 23.5211C73.1932 24.5002 74.1106 25.7608 75.051 27.2014C77.5051 30.9943 80.2689 34.596 82.918 38.2651C83.2621 38.7378 83.6749 39.1542 84.3286 39.9195C82.8951 40.2909 81.7139 40.6061 80.5212 40.91C76.0602 42.0692 71.5418 42.632 66.9202 42.6883C56.8284 42.8121 46.8743 44.1402 37.3329 47.3591C31.8054 49.2274 26.5301 51.8498 21.2434 54.3597C16.0254 56.847 10.7731 59.1768 5.09648 60.4824C3.88087 60.7637 2.64235 61.2815 1.59876 61.9455C-0.648953 63.3861 -0.488376 65.3108 1.83962 66.5713C3.53687 67.4942 5.34879 67.663 7.26393 67.6855C9.71807 67.7081 12.1723 67.9444 14.6149 68.1132C15.7158 68.192 16.8168 68.4847 17.9062 68.4734C23.2388 68.3946 28.3764 69.3851 33.5026 70.7131C36.599 71.5122 39.81 71.8386 43.4453 72.4576C39.6953 74.5173 36.2893 76.3969 32.8719 78.254C27.998 80.8989 23.7893 84.4104 19.6723 88.0345C18.6746 88.9124 17.803 89.9816 17.0576 91.0959C15.3374 93.6508 15.9108 96.6446 18.5255 98.3216C26.725 103.611 35.7733 105.829 45.4866 104.557C52.9179 103.589 60.1082 101.495 67.0349 98.6255C76.9432 94.5174 87.2185 91.5911 97.8378 89.9028C102.276 89.1938 106.806 89.0475 111.221 88.2371C117.976 86.9878 124.696 85.4684 131.37 83.8477C134.077 83.1949 136.68 82.0694 139.237 80.9664C146.485 77.8488 153.71 74.6861 160.877 71.4109C163.022 70.4318 165.006 69.1037 166.99 67.8094C168.4 66.8865 169.799 66.4588 171.531 66.7064C173.962 67.0553 176.439 67.4154 178.779 66.2112C179.077 66.0648 179.352 65.8848 179.581 65.7497C180.155 63.9602 178.664 63.1386 177.861 61.9343C181.152 58.7941 184.696 56.1379 188.607 53.9207C190.074 53.1103 191.508 52.21 192.873 51.2308ZM146.221 36.8357C147.987 36.9932 149.753 37.0495 151.496 37.3196C155.028 37.8599 158.526 38.5352 162.047 39.1317C165.51 39.7057 168.985 39.8295 172.437 39.1204C176.175 38.3551 179.902 37.4997 183.641 36.7456C185.35 36.3967 187.081 36.2954 188.744 37.2296C186.302 38.9404 184.054 40.4935 181.829 42.0692C179.902 43.4311 177.999 44.8379 176.049 46.1548C175.659 46.4249 175.063 46.4024 174.249 46.5825C176.118 44.0276 178.882 42.767 180.006 40.0433C178.721 40.3135 177.54 40.7187 176.531 41.3602C175.178 42.2268 173.951 43.2735 172.689 44.2527C171.175 45.4345 169.467 46.076 167.517 46.0873C163.297 46.1098 159.042 45.8059 155.097 47.1677C152.001 43.7687 149.065 40.5498 146.141 37.3422C146.175 37.1846 146.198 37.0157 146.221 36.8357ZM34.5691 68.102C29.4429 66.7401 24.2709 65.9523 18.9498 66.0761C17.7686 66.0986 16.553 66.0311 15.3947 65.806C12.6998 65.2657 10.0048 65.1757 7.27541 65.457C5.6699 65.6259 4.07589 65.5133 2.08047 64.2753C3.8236 63.6563 5.06211 63.1048 6.35799 62.7896C11.2433 61.5853 15.8993 59.8183 20.4177 57.6236C24.9819 55.3951 29.6035 53.2567 34.2824 51.2533C36.8398 50.1503 39.5004 49.1599 42.2068 48.5296C50.739 46.56 59.3399 45.0293 68.1588 45.1081C69.856 45.1193 71.5762 45.0293 73.2276 44.7254C76.645 44.1064 80.051 43.3973 83.434 42.5757C85.3148 42.1143 86.7712 42.2831 88.3423 43.5886C90.6015 45.4682 93.1589 47.0102 95.5901 48.6871C98.7896 50.8931 101.989 53.0879 105.177 55.3163C105.705 55.6765 106.141 56.1492 106.84 56.7682C102.758 57.6011 98.9617 58.3777 95.1658 59.143C94.8332 59.2106 94.4892 59.2331 94.1566 59.2443C92.7346 59.3119 91.3011 59.3456 89.8791 59.4131C88.9502 59.4582 88.0098 59.6608 87.1038 59.5707C81.106 58.9855 75.0739 58.569 69.1335 57.6686C61.2551 56.4643 53.4224 56.1267 45.5439 57.4998C42.4476 58.0401 39.3398 58.6703 36.2205 58.8054C27.7686 59.143 19.4888 60.3923 11.3924 62.7784C11.0025 62.8909 10.647 63.116 10.28 63.2849C11.4841 63.6225 12.5736 63.5887 13.6516 63.5775C14.6722 63.5662 15.6929 63.4762 16.7021 63.6C20.9108 64.1402 25.1081 64.793 29.3168 65.322C34.7068 65.9973 40.0967 66.7401 45.5669 65.9635C47.2412 65.7272 48.9729 65.7384 50.6587 65.8848C53.1128 66.0986 55.544 66.5488 57.9752 66.8977C57.9752 67.134 57.9752 67.3592 57.9867 67.5955C55.7619 67.9782 53.5486 68.6085 51.3124 68.676C49.6724 68.7323 48.0096 68.0457 46.3582 67.708C45.6931 67.573 44.9591 66.9877 44.3398 67.8319C44.6953 68.3383 44.9935 68.766 45.4178 69.3738C41.5761 69.3738 38.021 69.0136 34.5691 68.102ZM85.1084 62.5195C84.5579 62.6996 84.0189 62.9585 83.457 63.0372C80.4409 63.4874 77.4134 63.9264 74.3973 64.3203C71.8629 64.6467 71.0601 63.6675 71.6106 60.8538C76.0487 61.2927 80.4983 61.7429 84.9593 62.1931C84.9937 62.3057 85.051 62.4182 85.1084 62.5195ZM69.684 65.2094C65.2917 64.8493 61.0028 64.5679 56.7367 64.1177C55.4064 63.9826 54.2137 61.9793 54.4316 60.6512C54.5807 59.7733 54.9476 59.0755 56.06 59.1205C60.544 59.2894 65.0166 59.4244 69.3744 60.4711C69.4776 61.9455 69.5578 63.3299 69.684 65.2094ZM52.3101 63.1273C48.411 63.4199 44.6953 63.7126 40.9797 63.9714C38.8238 64.1177 38.4453 63.5887 38.9614 61.2364C43.2389 60.5836 47.5049 59.5595 51.8972 59.4357C52.0462 60.7638 52.1725 61.9118 52.3101 63.1273ZM36.0714 63.9039C32.1379 63.5437 28.4108 63.1948 24.6723 62.8572C28.5026 61.6416 33.1012 61.3152 36.0026 61.7992C36.0141 62.407 36.037 63.0373 36.0714 63.9039ZM159.845 69.2838C151.691 72.8741 143.526 76.4194 135.361 79.976C134.891 80.1786 134.409 80.3361 133.916 80.4824C123.331 83.6901 112.517 85.9299 101.508 86.9766C91.863 87.8995 82.6199 90.308 73.5373 93.3919C66.3124 95.8455 59.3743 99.0307 51.8628 100.73C45.8077 102.103 39.8559 102.643 33.6861 101.631C28.8925 100.843 24.6035 98.9181 20.2915 96.9485C19.2365 96.4645 18.1814 95.868 17.8603 94.6637C20.0622 90.6119 21.576 89.3964 28.0898 84.6018C36.576 78.3553 46.0256 73.7745 56.1862 70.6569C62.8721 68.6085 69.7528 67.5055 76.6795 66.7852C82.4134 66.1887 87.7919 64.5004 93.2047 62.7334C97.2988 61.394 101.565 60.5611 105.728 59.3794C108.652 58.5465 111.175 59.0417 113.572 60.865C114.558 61.6191 115.831 62.0018 116.966 62.5758C117.425 62.8009 117.861 63.0823 118.308 63.3299C113.526 64.1177 108.881 64.5679 104.225 64.8155C98.824 65.1082 93.6291 66.1436 88.5832 68.0795C83.996 69.8353 79.3515 71.4897 74.7414 73.2117C74.2483 73.3918 73.7895 73.6957 72.8148 74.2022C75.4065 74.7312 77.4019 74.7537 79.3514 74.0896C81.3583 73.4031 83.3652 72.694 85.3033 71.8611C91.84 69.0699 98.5603 67.2241 105.762 67.1228C111.209 67.0553 116.599 66.2337 121.886 64.9168C124.191 64.3428 126.164 65.0294 128.606 66.3349C127.563 66.6951 127.104 66.9315 126.611 66.999C122.654 67.528 118.709 68.1583 114.73 68.4959C105.292 69.295 95.9571 70.5668 87.0694 73.9208C80.0281 76.577 72.7574 78.0289 65.2574 78.7267C57.2069 79.4808 49.2596 80.8201 41.8283 84.1966C41.3008 84.433 40.693 84.5455 40.1082 84.6468C34.248 85.7273 29.0301 88.3835 23.8351 91.0509C22.7571 91.6024 21.8282 92.604 21.1058 93.5945C20.2571 94.7425 20.7388 95.8455 22.1149 96.3745C22.6654 96.5883 23.2732 96.6446 23.8466 96.7684C30.8077 98.1865 37.7343 97.8489 44.5807 96.2056C49.6954 94.9789 54.7183 93.4032 59.7871 92.0076C63.8812 90.8821 67.9179 89.4977 72.0808 88.7661C77.3216 87.8545 82.5625 86.954 87.9754 86.8415C97.5282 86.6276 106.76 83.994 116.037 81.9343C124.478 80.066 132.173 76.2731 139.902 72.5589C143.4 70.8819 147.047 69.3063 150.797 68.4284C154.788 67.483 158.996 67.4042 163.102 66.954C163.171 67.1228 163.228 67.2916 163.297 67.4492C162.161 68.057 161.038 68.7548 159.845 69.2838ZM97.3791 83.2624C95.7162 83.5325 94.4777 83.8139 93.2162 83.9152C89.0763 84.2529 84.9363 84.5455 80.7964 84.7931C80.2574 84.8269 79.5464 84.658 79.1795 84.3091C77.8951 83.0823 76.7941 81.7093 77.0923 79.8297C82.8607 77.9726 88.5144 76.1605 94.4663 74.2472C93.8126 77.86 95.2805 80.4487 97.3791 83.2624ZM97.6314 73.4594C102.505 72.4914 107.471 71.6698 112.815 71.2309C111.886 74.6073 113.767 76.8471 115.59 79.5033C110.923 80.5162 106.634 81.4504 102.345 82.362C100.819 82.6884 99.73 81.7543 98.7667 80.8539C96.7254 78.9518 96.3469 76.2618 97.6314 73.4594ZM115.716 71.0733C116.37 71.0058 117.047 70.972 117.712 70.8707C122.058 70.1954 126.531 69.9928 130.602 68.2483C132.184 67.573 133.159 67.8544 134.134 68.9349C134.799 69.6664 135.361 70.4768 136.015 71.2984C135.648 71.7261 135.567 71.9061 135.43 71.9624C130.441 74.0108 125.441 76.0592 120.43 78.0851C120.051 78.2427 119.593 78.3328 119.191 78.2765C116.359 77.9051 114.363 73.7745 115.716 71.0733ZM76.4959 85.2208C71.4156 86.4138 66.3354 87.5956 61.1977 88.7999C59.7184 87.6294 58.3078 86.335 58.3651 84.1516C58.3995 82.5534 58.7092 82.0244 60.3376 81.8218C65.2 81.2365 70.0625 80.7413 74.7529 80.2348C75.3836 82.0019 75.9569 83.6676 76.4959 85.2208ZM58.044 89.9591C54.7298 90.9383 51.2435 91.94 47.7802 93.0092C46.06 93.5382 44.787 92.9417 43.8696 91.5911C43.3077 90.7695 42.849 89.8466 42.5623 88.9124C42.0921 87.348 42.7228 85.9862 44.3284 85.5359C48.1357 84.4667 52.0004 83.5888 55.4981 82.7222C56.3697 85.2208 57.1495 87.438 58.044 89.9591ZM42.1953 94.2698C39.5462 94.5399 36.943 94.8325 34.3397 95.0689C33.5829 95.1364 32.803 95.1589 32.0462 95.0914C31.0484 95.0014 29.6379 93.6395 29.4659 92.6266C29.3282 91.7599 29.443 90.8708 30.3604 90.4769C33.4338 89.1713 36.404 87.5168 39.4889 87.2129C40.4178 89.599 41.232 91.7374 42.1953 94.2698ZM28.8696 95.1702C26.9315 94.4837 25.2686 94.9226 23.6746 93.7858C25.131 93.0205 26.3581 92.3789 27.6655 91.6924C28.0783 92.8629 28.365 93.7183 28.8696 95.1702ZM136.806 68.3721C137.872 68.4847 138.538 68.5184 139.18 68.6197C139.788 68.7097 140.372 68.8673 141.313 69.0587C140.04 69.6439 139.157 70.0603 138.056 70.5668C137.666 69.8915 137.311 69.2613 136.806 68.3721ZM176.061 64.5792C174.18 64.4103 172.288 64.2303 170.407 64.0614C170.396 64.0614 170.373 64.0614 170.361 64.0614C170.212 64.0727 170.074 64.084 169.925 64.1065C164.26 64.5454 158.549 64.703 152.941 65.5021C146.21 66.47 139.581 66.7964 132.976 64.9618C129.386 63.9601 125.843 62.8234 122.253 61.7992C116.771 60.2347 112.058 57.3085 107.54 53.9657C103.95 51.3096 100.303 48.6647 96.4846 46.3461C89.2253 41.9342 83.5487 36.0816 78.778 28.7433C81.1749 30.1952 82.4478 32.525 85.0969 33.1328C85.3836 31.377 84.3285 30.274 83.2964 29.3961C80.6014 27.1114 77.8263 24.9054 74.9593 22.8345C71.9317 20.651 68.9844 18.4451 66.5991 15.5413C64.317 12.75 61.9202 10.0601 59.5807 7.3139C58.5715 6.12087 57.4821 4.95032 57.4592 3.3071C58.7206 2.4067 59.9477 2.62055 61.0257 3.03699C63.239 3.86986 65.4867 4.70273 67.528 5.862C73.9271 9.4861 80.613 12.2323 88.0098 13.1552C95.6704 14.1119 102.987 16.2278 109.868 19.6944C111.898 20.7186 113.847 21.8891 115.751 23.1159C120.934 26.4473 125.843 30.2403 131.622 32.6263C139.249 35.7665 145.522 40.5611 150.648 46.9201C154.891 52.1874 160.304 56.0029 166.623 58.614C168.962 59.582 171.187 60.8313 173.423 62.0468C174.421 62.587 175.304 63.3411 176.244 63.9939C176.187 64.1853 176.118 64.3878 176.061 64.5792ZM170.453 57.466C171.829 56.9708 173.033 56.5319 174.467 56.0141C172.643 58.3552 172.368 58.4565 170.453 57.466ZM177.402 58.7716C176.668 59.3118 176.049 60.2122 174.501 59.7733C175.281 58.9855 175.866 58.434 176.393 57.8487C177.242 56.9146 178.251 56.0704 178.824 54.9899C179.363 53.977 180.04 53.5043 181.107 53.2792C182.104 53.0766 183.079 52.784 184.054 52.4801C185.109 52.1537 186.175 51.8048 186.886 50.0715C185.441 50.2291 184.375 50.2404 183.354 50.4655C179.444 51.3321 175.762 52.8065 172.035 54.2358C168.985 55.4064 165.625 56.0029 162.517 54.0896C161.084 53.2004 159.719 52.1875 158.4 51.152C157.781 50.668 157.345 49.9815 156.496 49.0248C157.895 48.8447 158.79 48.6084 159.684 48.6309C164.776 48.7322 169.868 48.7772 174.937 49.0698C178.905 49.2949 182.85 50.0378 186.829 49.0136C188.125 48.6872 189.57 48.5746 191.256 49.3625C189.123 50.5892 187.219 51.5234 185.499 52.7164C182.735 54.6523 180.109 56.757 177.402 58.7716Z" fill="#DAE6DA"/>
<path d="M171.072 63.2961C170.717 62.8459 170.327 62.3394 169.822 62.0918C167.792 61.0563 165.808 59.7958 163.629 59.1992C159.707 58.1075 155.705 57.2184 151.68 56.6444C146.542 55.9128 141.829 54.2246 137.299 51.7935C134.099 50.0715 130.797 48.5295 127.471 47.0439C123.721 45.3782 120.223 43.3523 117.276 40.5048C109.592 33.0765 100.521 27.7304 90.7391 23.476C87.1152 21.9003 83.8698 19.7956 80.9225 17.252C75.8307 12.8625 70.2688 9.24968 63.9729 6.72857C62.9063 6.30088 61.8972 5.74941 60.5439 5.09662C60.7274 5.71564 60.7389 6.05327 60.8994 6.26711C62.0921 7.77528 63.3765 9.22717 64.5118 10.7691C65.865 12.6149 67.5852 14.0443 69.3284 15.53C73.8238 19.3454 78.1128 23.3972 82.5165 27.3139C85.8537 30.2852 89.1335 33.3128 92.6198 36.1041C99.1336 41.3264 105.728 46.4586 112.402 51.5008C116.163 54.3484 119.959 57.2409 124.076 59.5369C130.074 62.8796 136.645 64.6354 143.641 64.1852C149.398 63.8138 155.143 63.2735 160.888 62.8909C162.827 62.7558 164.788 62.7108 166.703 62.9021C167.804 63.0147 168.847 63.7012 169.914 64.1177C170.063 64.0951 170.2 64.0839 170.35 64.0727C170.361 64.0727 170.384 64.0727 170.395 64.0727C170.636 63.7913 171.118 63.3523 171.072 63.2961ZM78.2733 19.7393C74.6953 16.9481 71.1289 14.1456 67.5623 11.3431C71.7137 13.4478 75.716 15.7213 78.8239 19.2441C78.5028 19.5255 78.2963 19.7506 78.2733 19.7393ZM87.9638 29.171C85.3835 26.6274 82.9523 24.2526 80.5669 21.8328C80.4293 21.6977 80.6472 21.225 80.716 20.7748C83.6862 22.5531 86.5532 24.2638 89.4546 25.9971C89.0303 26.8975 88.5716 27.8654 87.9638 29.171ZM92.0808 32.7163C90.59 31.6696 90.4638 30.2515 90.7391 28.7321C91.0028 27.2689 91.9661 26.7624 93.3194 27.449C96.0946 28.8558 98.7896 30.3978 101.404 31.8272C100.166 33.8981 99.168 35.5638 98.1588 37.2408C96.1404 35.7327 94.1565 34.1682 92.0808 32.7163ZM111.049 47.1452C108.147 44.9955 104.89 42.7895 101.897 40.2684C99.9937 38.6702 101.37 34.5621 103.835 33.9206C104.202 33.8305 104.73 33.8531 105.017 34.0556C108.262 36.2841 111.553 38.4563 113.962 41.09C112.93 43.2397 112.012 45.1305 111.049 47.1452ZM127.127 58.2426C122.849 56.0479 118.87 53.5605 115.235 50.5892C113.709 49.3399 113.675 45.8396 114.982 44.3539C115.67 43.5661 116.381 43.3185 117.379 44.0501C119.145 45.3331 120.969 46.5487 122.849 47.6629C124.352 48.552 125.98 49.2386 127.597 50.0377C126.794 52.7502 125.774 55.3838 127.127 58.2426ZM143.411 61.6078C140.051 61.8779 136.794 61.5741 133.595 60.5499C129.237 59.143 127.345 54.5284 129.707 50.623C132.528 52.1311 135.303 53.7518 138.205 55.1137C141.095 56.4755 144.111 57.5673 147.253 58.8616C146.599 60.6737 145.349 61.4503 143.411 61.6078ZM148.916 60.9213C149.122 60.1222 149.26 59.5819 149.398 59.0529C152.368 59.1205 153.732 59.3906 155.705 60.3585C153.308 60.5611 151.198 60.7299 148.916 60.9213Z" fill="#DAE6DA"/>
<path d="M144.237 43.6561C144.409 46.2223 144.971 48.3157 145.659 50.4992C147.345 50.0602 147.425 49.0022 147.276 47.9218C147.036 46.211 146.669 44.534 144.237 43.6561Z" fill="#DAE6DA"/>
<path d="M140.476 42.4969C141.038 44.2189 141.393 45.3444 141.806 46.6049C143.262 44.9955 142.976 43.9713 140.476 42.4969Z" fill="#DAE6DA"/>
</svg>
