<svg width="180" height="162" viewBox="0 0 180 162" fill="none" xmlns="http://www.w3.org/2000/svg">
<path d="M77.3704 101.037L77.313 101.126L77.3704 101.037Z" fill="#DAE6DA"/>
<path d="M161.616 43.4573C161.339 44.2247 161.218 45.044 161.004 45.8322C160.156 48.9543 158.452 51.5766 155.826 53.4983C154.987 54.1114 153.75 54.3661 152.663 54.4729C151.06 54.63 149.561 54.9351 148.103 55.6755C146.099 56.6936 143.997 57.5131 141.491 58.6155C139.108 57.3838 136.093 57.1317 132.613 58.2781C133.282 56.7704 133.746 55.6222 134.279 54.5018C135.364 52.2122 136.077 49.9205 134.892 47.4278C134.692 47.0109 134.914 46.4099 134.856 45.9083C134.715 44.7413 134.786 43.4472 134.284 42.4401C133.497 40.8515 133.821 39.5827 134.731 38.2789C136.646 35.542 137.423 32.5074 137.339 29.2036C137.258 26.1826 135.968 23.5995 134.508 21.0657C133.868 19.9578 132.759 19.683 131.554 19.8455C130.296 20.014 129.483 20.778 129.176 21.9655C128.713 23.8071 128.83 25.6066 130.503 26.8192C131.966 27.8833 132.363 29.2431 131.737 30.7303C130.845 32.839 129.772 34.8925 128.603 36.8699C127.983 37.9086 126.863 38.4733 125.55 38.558C124.158 38.6455 122.877 38.9909 121.883 40.0851C121.608 40.3843 121.119 40.5729 120.7 40.6741C116.313 41.7123 113.572 44.7108 111.278 48.2345C110.835 48.9232 110.512 49.6913 110.111 50.4046C108.647 52.993 107.177 55.5743 105.818 57.9577C104.15 57.8563 102.753 58.0844 101.643 57.617C100.409 57.108 99.4147 56.0068 98.3904 55.0879C98.0856 54.8183 98.1321 54.2143 97.8702 53.8667C95.3155 50.5014 96.4062 47.0698 97.7068 43.684C98.5135 41.5711 99.2549 39.5077 98.7942 37.1835C98.4244 35.3136 97.6219 34.4997 95.8396 34.4738C94.0517 34.4407 92.3352 35.5593 92.0224 37.0476C91.8921 37.6924 91.8671 38.3825 91.9444 39.0407C92.3459 42.3653 91.496 45.3073 89.6092 48.1248C87.8915 50.7005 86.5621 53.6076 87.2732 56.7659C87.8197 59.1844 87.4837 60.8496 85.473 62.5666C83.4551 64.2891 83.1209 66.9881 82.9483 69.5533C82.9134 70.0689 82.9574 70.5816 82.9644 71.3272C82.1502 71.5004 81.3703 71.7614 80.58 71.8029C75.857 72.1054 71.2872 72.9858 66.9212 74.9062C65.1449 75.6834 63.172 76.0635 61.2529 76.4825C57.6563 77.2739 54.3324 78.5298 51.4446 80.9C48.41 83.3929 45.0376 85.3681 41.1967 86.5266C40.1679 86.8397 39.1147 87.4899 38.3788 88.2637C37.2359 89.4482 37.5201 90.7231 38.8862 91.6787C40.3246 92.682 41.9322 92.9427 43.6519 92.6975C49.2667 91.8785 54.9165 91.1922 60.4975 90.1827C63.6128 89.6194 66.6169 88.4579 69.7001 87.6916C72.2621 87.0585 74.8725 86.6048 77.4639 86.0974C77.7328 86.0415 78.0318 86.1562 78.7524 86.2472C77.8867 86.6643 77.3853 86.8964 76.8952 87.1426C74.7491 88.2455 72.6182 89.3824 70.4569 90.4512C67.762 91.7994 65.1069 93.2424 62.3226 94.3739C56.5735 96.7167 50.8949 99.1198 45.641 102.475C41.3526 105.201 38.749 109.097 36.9486 113.601C36.472 114.792 36.3219 116.237 36.454 117.525C36.6778 119.71 38.4146 120.533 40.4104 119.578C41.1504 119.222 41.8129 118.708 42.4794 118.215C43.262 117.633 44.0015 116.982 44.7617 116.372C48.1199 113.656 51.9505 112.028 56.2516 111.351C60.6388 110.666 65.0073 109.824 69.5285 109.015C66.1951 113.338 62.5919 117.274 57.2999 119.373C53.5535 120.858 50.1894 123.02 47.0989 125.59C46.3499 126.214 45.5207 126.751 44.738 127.333C42.8532 128.739 40.7275 129.337 38.3707 129.303C36.4049 129.279 34.3936 129.154 32.4732 129.483C30.3387 129.849 28.2007 130.49 26.2108 131.35C23.5278 132.507 23.1743 135.255 25.5053 137.083C26.8934 138.17 28.6143 138.914 30.2792 139.586C32.0992 140.323 34.0076 140.833 35.9055 141.375C41.9916 143.099 47.9411 142.971 53.9123 140.631C57.6973 139.15 61.6811 138.1 65.6421 137.123C68.7453 136.353 71.7077 135.36 74.5855 133.964C80.2517 131.206 85.528 127.879 90.493 124.083C92.6879 122.409 94.7548 120.512 96.6234 118.482C102.804 111.797 106.803 103.943 109.274 95.2678C110.063 92.4977 111.282 89.8335 112.352 87.0091C116.625 87.7412 120.467 86.4799 124.299 84.9865C128.601 83.3083 133.079 82.2239 137.648 81.4011C140.602 80.8689 143.538 79.9299 146.292 78.7304C150.164 77.0365 151.549 73.655 151.755 69.335C153.323 68.2041 154.292 66.2978 154.94 64.2033C155.429 62.6153 156.525 61.489 158.093 60.9038C160.554 59.9947 162.378 58.3055 163.635 56.1468C165.214 53.438 166.653 50.641 167.93 47.785C168.419 46.6977 168.482 45.319 168.367 44.0976C168.208 42.3186 167.162 41.5189 165.344 41.3601C163.303 41.1666 162.226 41.7433 161.616 43.4573ZM125.618 40.531C127.616 40.5072 129.096 39.4999 130.233 38.0578C132.155 35.6234 133.55 32.9171 134.014 29.8238C134.274 28.0912 133.877 26.6288 132.379 25.4769C131.839 25.0556 131.396 24.3449 131.24 23.6896C131.129 23.2391 131.585 22.6547 131.79 22.135C132.242 22.4295 132.884 22.6261 133.104 23.0391C135.633 27.6979 135.986 32.3452 132.86 36.9322C132.398 37.6121 131.984 38.3238 131.602 39.0458C131.025 40.1542 130.843 41.2932 131.461 42.4626C131.65 42.8202 131.742 43.217 131.881 43.6005C129.478 42.0774 126.212 43.5846 123.962 40.9445C124.633 40.766 125.127 40.5395 125.618 40.531ZM107.842 60.03C107.756 59.9357 107.781 59.7462 107.737 59.4839C107.948 59.119 108.204 58.6634 108.471 58.2221C109.671 56.2551 110.889 54.2968 112.065 52.3139C112.595 51.4115 112.979 50.4265 113.539 49.5471C115.07 47.1019 116.954 45.003 119.658 43.7394C120.959 43.1398 122.253 43.0014 123.514 43.9116C124.602 44.6909 125.836 44.7568 127.178 44.7529C131.299 44.7467 133.969 48.9354 132.261 52.5844C131.944 53.2569 131.551 53.9071 131.271 54.5971C130.659 56.1184 129.914 57.6163 129.576 59.1914C129.162 61.1098 128.316 62.6721 126.853 63.9511C124.792 65.7517 123.245 67.9252 121.908 70.2921C120.733 72.365 119.441 74.3909 118.091 76.3582C117.026 77.8929 115.65 79.1635 113.732 80.2182C112.914 76.1285 112.068 72.356 111.428 68.552C110.903 65.4236 110.006 62.4857 107.842 60.03ZM89.7092 53.6005C90.336 51.8628 91.0062 50.0922 91.9711 48.5193C93.5997 45.8746 94.4691 43.134 94.1223 40.041C94.045 39.3829 94.0225 38.706 94.0901 38.0405C94.1829 37.0828 94.9986 36.4989 95.9911 36.6113C96.9138 36.7086 97.4619 37.317 97.2305 38.3342C96.9369 39.626 96.4134 40.8759 96.0297 42.1563C95.4032 44.2919 94.7324 46.4156 94.2273 48.573C93.866 50.1322 94.1356 51.6684 95.0035 53.0812C95.3323 53.617 95.5337 54.2266 95.7348 54.6885C93.6404 55.2972 91.7708 55.8379 89.413 56.5096C89.5135 55.4438 89.4076 54.4547 89.7092 53.6005ZM69.48 85.1281C65.0034 86.4953 60.5532 87.9108 55.8064 88.3451C51.9136 88.7011 47.9855 89.2773 44.2692 90.6827C42.9275 91.1874 41.4834 91.3261 39.523 90.2633C40.7123 89.6238 41.4071 89.0632 42.215 88.8378C46.3843 87.6693 49.9644 85.4571 53.274 82.8128C55.5676 80.9839 58.0984 79.8397 60.9871 79.2093C63.7148 78.61 66.3799 77.7395 69.0535 76.9536C71.0069 76.372 72.8984 75.5645 74.8779 75.1339C77.8198 74.4973 80.8146 74.105 83.9452 73.5758C84.5338 74.5745 85.2231 75.5538 85.71 76.6296C86.4261 78.2029 86.6555 79.7469 85.0277 81.0371C84.4435 81.5026 83.9842 82.1123 83.4857 82.672C82.6817 83.5656 81.761 83.8538 80.4832 83.8209C76.7596 83.6847 73.085 84.0233 69.48 85.1281ZM64.0214 107.864C61.549 108.213 59.0804 108.582 56.5945 108.884C50.844 109.59 45.8859 111.936 41.5944 115.734C40.7879 116.448 39.8452 117.003 38.6915 117.82C38.08 115.599 38.5183 113.902 39.495 112.388C41.2438 109.675 43.3769 107.274 46.0081 105.314C49.9141 102.411 54.3118 100.398 58.778 98.5614C64.0872 96.3813 69.4858 94.4179 74.2621 91.1627C74.9381 90.6959 75.7167 90.3449 76.4927 90.0641C79.6093 88.9425 82.3024 87.2089 84.6147 84.888C84.9313 84.5685 85.3706 84.3608 85.8376 84.041C85.8687 86.3495 85.7645 88.442 85.959 90.5015C86.1397 92.3667 85.6665 93.9311 84.3167 95.1474C82.0336 97.1959 79.6479 99.1287 77.3015 101.111C77.2959 101.104 77.2976 101.092 77.292 101.085C76.1372 102.21 75.144 103.599 73.7804 104.371C70.7751 106.091 67.5196 107.375 64.0214 107.864ZM109.644 86.9562C107.406 92.8043 105.347 98.7328 102.727 104.404C99.8229 110.688 95.6393 116.259 90.1628 120.613C85.7679 124.103 81.1364 127.351 76.0326 129.91C71.8946 131.987 67.7758 133.868 63.1467 134.703C60.1118 135.25 57.0804 136.171 54.2493 137.361C50.9893 138.727 47.7168 139.592 44.1607 139.624C38.0707 139.677 32.6075 137.492 27.1778 135.202C25.987 134.705 25.9883 133.896 27.0786 133.263C27.8995 132.789 28.8289 132.335 29.7506 132.24C32.1567 131.998 34.5772 131.995 36.9863 131.83C38.86 131.708 40.7562 131.613 42.6106 131.289C43.5881 131.117 44.2691 131.26 44.7806 131.999C45.3314 132.788 45.8023 133.637 46.2458 134.495C46.5877 135.18 46.8256 135.91 47.1111 136.626C48.2177 133.922 46.6797 132.232 44.9585 130.442C46.2551 129.483 47.4401 128.676 48.545 127.782C51.4915 125.412 54.6108 123.322 58.1318 121.86C62.7746 119.923 66.5015 116.94 69.7044 113.113C72.3875 109.909 75.4326 106.987 78.4111 104.025C80.8088 101.65 83.3685 99.4379 85.8071 97.1008C87.4997 95.4657 88.2909 93.4214 88.3493 91.0792C88.4338 87.7389 88.59 84.4012 88.7148 81.0532C88.8076 78.5484 88.3809 76.1643 86.9612 74.0207C86.5898 73.4603 86.2402 72.8833 85.9253 72.2915C84.6921 69.9724 85.3267 66.0789 87.1892 64.3945C87.8439 68.4829 88.8433 71.1384 90.2924 72.5089C91.034 71.492 90.7008 70.3907 90.2395 69.5685C88.7556 66.9161 89.2828 64.2415 89.8775 61.5498C90.7054 57.8283 95.1838 56.1981 98.2676 58.571C99.8075 59.7476 101.144 61.1809 102.597 62.4685C102.891 62.7238 103.307 62.8406 103.987 63.1897C103.92 61.9551 103.862 61.0553 103.793 59.8784C106.334 61.5023 107.794 63.5931 108.393 66.2108C109.052 69.1123 109.284 72.1331 110.198 74.9446C111.505 79.0961 111.146 83.0309 109.644 86.9562ZM144.502 76.4695C142.315 77.2847 140.057 77.9947 137.77 78.4763C133.922 79.2874 130.006 79.8202 126.32 81.2936C124.567 81.9967 122.769 82.5851 120.985 83.2201C118.493 84.1188 115.944 84.6058 112.906 84.2801C113.642 83.6991 114.086 83.3058 114.566 82.9876C118.303 80.5319 121.175 77.3317 123.274 73.4432C123.628 72.7882 124.05 72.161 124.386 71.4972C125.452 69.4042 126.931 67.6459 128.618 66.0036C129.578 65.0719 130.497 64.0453 131.195 62.9136C131.828 61.8765 132.656 61.2492 133.717 60.7862C135.603 59.9715 137.51 59.9939 139.499 60.4439C140.896 60.7615 141.777 61.3222 142.192 62.7483C142.69 64.4417 143.833 65.7029 145.403 66.6522C146.802 67.5029 148.078 68.5498 149.513 69.5783C148.633 72.6 147.623 75.31 144.502 76.4695ZM166.257 44.775C166.143 45.6465 166.085 46.5892 165.692 47.342C164.458 49.7219 163.137 52.0652 161.738 54.3537C160.597 56.2191 159.105 57.7254 156.933 58.5747C154.65 59.4741 153.15 61.1913 152.365 63.5381C151.97 64.7016 151.338 65.7837 150.75 67.0255C149.02 65.9019 147.606 65.1649 146.422 64.1617C145.61 63.4686 145.064 62.4495 144.534 61.4969C144.152 60.8195 144.449 60.1058 145.199 59.8668C147.762 59.0283 150.036 57.351 152.865 57.2779C154.866 57.2289 156.515 56.4228 157.9 55.044C159.946 53.0041 161.621 50.7569 162.377 47.9314C162.706 46.7148 163.163 45.527 163.574 44.3399C163.85 43.5274 164.495 43.4484 165.225 43.5662C165.939 43.6627 166.341 44.0858 166.257 44.775Z" fill="#DAE6DA"/>
<path d="M79.7661 105.865C81.9141 107.991 83.8937 109.506 85.2829 111.434C86.6328 113.312 87.3921 115.603 88.4966 117.906C89.6147 116.911 89.7399 115.906 89.4717 114.858C88.4913 110.959 86.1455 108.095 82.4777 106.336C81.8255 106.022 80.9893 106.064 79.7661 105.865Z" fill="#DAE6DA"/>
<path d="M75.4378 127.209C76.762 125.99 76.9334 124.881 76.2499 122.51C75.499 119.905 74.07 117.882 71.2006 117.167C74.38 119.809 74.3787 123.712 75.4378 127.209Z" fill="#DAE6DA"/>
<path d="M57.4347 130.522C58.0452 131.902 58.4769 133.349 59.1612 135.265C60.7613 131.391 58.7498 127.125 55.2083 126.248C56.0043 127.76 56.8033 129.1 57.4347 130.522Z" fill="#DAE6DA"/>
<path d="M85.5923 105.329C87.3256 107.326 88.9563 109.208 90.6784 111.19C91.3041 107.963 88.7287 104.955 85.5923 105.329Z" fill="#DAE6DA"/>
<path d="M101.989 70.0503C103.844 71.8187 105.712 73.5888 107.678 75.4547C108.322 74.5345 107.987 73.5936 107.368 72.7772C106.039 71.043 104.316 69.9139 101.989 70.0503Z" fill="#DAE6DA"/>
<path d="M105.655 77.3177C105.933 75.0482 105.264 74.3153 102.588 73.9198C103.781 75.2452 104.719 76.2751 105.655 77.3177Z" fill="#DAE6DA"/>
<path d="M119.354 63.9226C117.807 61.7051 115.682 60.198 112.967 59.6049C112.796 59.564 112.578 59.7291 112.222 59.851C114.762 62.226 117.158 64.4606 119.665 66.7928C120.237 65.87 119.971 64.8093 119.354 63.9226Z" fill="#DAE6DA"/>
<path d="M122.159 46.8156C123.975 49.0798 125.66 51.1927 127.342 53.2859C128.136 50.4203 125.687 47.293 122.159 46.8156Z" fill="#DAE6DA"/>
<path d="M73.8385 96.5915C74.1732 97.9305 74.5996 99.2683 75.2099 100.501C75.5917 101.281 76.4434 101.42 77.288 101.065C76.5843 99.1978 75.8749 97.3236 75.2301 95.6052C74.0736 95.4464 73.6998 96.0027 73.8385 96.5915Z" fill="#DAE6DA"/>
<path d="M77.3699 101.037C77.3425 101.046 77.3224 101.05 77.3006 101.066C77.3063 101.074 77.3102 101.093 77.3158 101.1C77.3214 101.108 77.3197 101.12 77.3254 101.127C77.3125 101.126 77.3699 101.037 77.3699 101.037Z" fill="#DAE6DA"/>
<path d="M71.8134 102.312C71.1352 100.949 70.4553 99.5988 69.7658 98.2215C68.6674 99.5657 69.4585 101.514 71.8134 102.312Z" fill="#DAE6DA"/>
<path d="M69.5777 103.449C68.9465 102.426 68.4842 101.661 67.7402 100.45C67.4788 102.844 67.5108 102.899 69.5777 103.449Z" fill="#DAE6DA"/>
<path d="M132.38 72.8338C132.722 74.1223 132.976 74.3727 134.731 74.8638C134.458 73.1025 134.128 71.4752 133.976 69.8384C133.829 68.2663 133.874 66.6735 133.827 64.8893C132.247 66.4617 131.659 70.1043 132.38 72.8338Z" fill="#DAE6DA"/>
<path d="M129.952 73.0472C130.869 71.8855 130.886 71.3612 130.072 68.3826C129.192 70.2102 129.373 71.5747 129.952 73.0472Z" fill="#DAE6DA"/>
<path d="M65.4028 85.294C65.5705 85.2124 65.7382 85.1309 65.9058 85.0493C65.3852 83.9308 64.8646 82.8123 64.2306 81.4612C63.5917 83.2422 63.8841 84.0559 65.4028 85.294Z" fill="#DAE6DA"/>
</svg>
