<svg width="122" height="94" viewBox="0 0 122 94" fill="none" xmlns="http://www.w3.org/2000/svg">
<path d="M70.4563 9.53889C72.0456 6.98866 73.7568 4.51012 75.6042 2.131C77.6542 -0.515394 80.1028 -2.86212 82.0308 -5.58021C85.2611 -10.1326 88.943 -14.2343 93.0289 -18.0669C95.3241 -20.2229 97.6845 -20.9301 100.851 -20.6425C105.174 -20.2538 109.781 -15.472 107.806 -10.2276C107.017 -8.13985 105.873 -6.46712 104.087 -5.22775C102.477 -4.10287 100.738 -3.15792 99.0791 -2.0856C97.9831 -1.37214 96.7425 -0.746951 95.9048 0.207025C92.2558 4.39325 88.6197 8.59747 85.2104 12.9674C82.8621 15.9841 80.8685 19.2771 78.7585 22.4678C77.8855 23.7939 77.1147 25.1945 76.4277 26.345C78.3925 27.8573 80.0438 29.1667 81.7558 30.4079C82.4011 30.8704 83.1468 31.3283 83.9182 31.485C86.6414 32.0547 88.5596 33.5935 89.7626 35.9595C91.1966 38.7882 92.4682 41.68 93.8076 44.5521C94.3582 45.7325 94.7226 47.0191 95.4382 48.0865C96.3673 49.5001 97.7621 50.6481 98.5768 52.1079C99.3901 53.5579 99.7462 55.2624 100.319 56.9257C104.481 57.0499 106.109 59.821 104.424 63.2182C103.414 65.2485 101.908 66.7353 100.008 68.0209C97.8513 69.4823 95.6683 71.0369 93.8854 72.9009C90.042 76.9366 85.6359 79.9126 80.0566 80.9251C73.7791 82.0679 67.7326 84.0107 61.8288 86.2999C56.5647 88.3382 51.4332 88.1553 46.4045 86.0927C40.8488 83.8183 35.4023 81.2604 30.0065 78.6357C28.197 77.7557 26.5061 76.452 25.082 75.0404C21.8887 71.87 18.8899 68.513 15.8291 65.2144C14.8292 64.1385 13.8447 63.0305 12.9534 61.8694C10.0675 58.1191 8.38094 54.0075 9.00377 49.1861C9.10928 48.3377 8.92033 47.4126 8.73165 46.557C7.34927 40.3581 8.54988 34.6698 12.0856 29.3889C12.9853 28.0391 13.8239 26.6188 14.4403 25.1313C15.3102 23.0419 16.4922 21.215 18.3368 19.8976C21.7439 17.4723 25.242 15.1826 28.6634 12.7849C33.7404 9.2261 39.2555 9.13552 44.9949 10.6791C47.7853 11.4276 50.5283 12.3317 53.3283 13.0094C56.117 13.6788 58.5742 14.9018 60.7734 16.6977C61.9709 17.6758 63.2275 18.5759 64.5722 19.5923C66.6005 16.1257 68.4341 12.7764 70.4563 9.53889ZM97.4319 54.3857C97 53.5255 96.6213 52.5484 95.9498 51.9112C93.9823 50.0422 92.9631 47.6894 91.9452 45.2768C90.7829 42.5081 89.4781 39.7997 88.155 37.1038C87.1797 35.1117 85.643 33.8254 83.3216 33.3069C82.1184 33.0339 80.9878 32.1652 79.9805 31.378C78.63 30.3227 77.4258 29.0976 75.5147 28.6192C75.0519 29.5786 74.6059 30.5159 74.1584 31.4434C75.9377 33.6073 77.9731 35.1193 80.5296 36.0602C82.2844 36.71 83.9751 37.607 85.5687 38.5975C87.1395 39.5713 87.9505 41.1408 88.4366 42.8364C88.2294 43.0051 88.0207 43.1642 87.8135 43.3329C87.7161 43.0196 87.6949 42.6755 87.5242 42.4124C86.1451 40.2206 84.0723 38.9322 81.6174 38.2643C78.4461 37.402 75.5405 36.1543 73.1638 33.1044C71.9401 36.5443 68.8822 38.9392 70.2487 42.9382C72.514 43.2168 74.3188 44.3355 75.5344 46.3128C76.4283 47.7612 76.5333 48.1924 76.3114 50.3571C75.0425 49.9151 74.8565 48.6722 74.1688 47.8587C73.4796 47.0355 72.7622 46.2263 71.7837 45.5639C72.994 47.9784 74.2323 50.3096 73.7577 53.2844C72.3812 52.4611 72.7871 51.0536 72.2289 50.0925C71.5683 48.9874 70.9245 47.8601 70.199 46.7941C69.5247 45.8002 68.7474 44.8607 67.9171 43.7702C64.1058 47.6822 59.5615 50.4104 53.268 50.7024C54.4994 49.2056 55.9828 49.5275 57.0596 48.9557C58.1279 48.395 59.2576 47.9743 60.2739 47.1335C58.4966 47.2111 56.7192 47.2887 54.9418 47.3663C54.9043 47.1832 54.8782 47.0084 54.8407 46.8254C55.2402 46.6587 55.6113 46.4366 56.0295 46.3267C57.0721 46.0673 58.1279 45.8953 59.1676 45.6165C63.4736 44.4702 66.7055 42.0899 68.4567 37.9193C69.4331 35.5962 70.7212 33.3969 71.6028 31.0479C74.4435 23.4865 79.3962 17.1383 83.8686 10.5519C86.7846 6.26302 90.4946 2.48464 93.9963 -1.40261C95.0621 -2.58786 96.6033 -3.36549 97.9389 -4.30194C100.016 -5.75202 102.143 -7.13983 104.206 -8.6176C107.886 -11.2508 105.824 -16.9252 101.919 -18.0983C99.251 -18.9042 96.8276 -18.7533 94.6072 -16.6378C91.0428 -13.2375 87.7138 -9.68265 84.9157 -5.61905C83.0723 -2.94292 80.9057 -0.468186 78.7446 1.97599C76.2977 4.7391 74.0705 7.61935 72.3128 10.8684C68.3216 18.2385 64.1674 25.5329 60.111 32.8728C59.3233 34.2957 58.6235 35.7655 57.9675 37.2586C56.8295 39.8529 54.995 41.9128 52.9109 43.7904C52.6347 44.0385 52.2378 44.1552 51.7128 44.4293C51.3972 42.2528 53.2291 41.3242 53.8999 39.6602C48.3742 37.7882 44.295 40.856 39.6299 43.7901C40.0494 42.946 40.131 42.4779 40.4185 42.2381C44.1226 39.0954 48.1616 36.9757 53.2947 38.2496C54.1766 38.4696 54.1836 38.4488 55.3069 37.8504C53.8198 35.8825 51.3326 36.6873 49.478 35.8436C50.7093 33.6029 51.5675 33.5288 56.3373 35.2121C58.0542 32.0285 59.7894 28.8323 61.4909 25.6806C59.4882 23.5092 57.2277 22.3173 54.3554 21.9675C52.6872 21.7615 51.1027 20.8988 49.5105 20.2553C48.8335 19.9859 48.2432 19.4857 47.5871 19.1537C44.7063 17.7338 41.9183 17.6099 39.2437 19.6619C36.8878 21.4794 34.2812 22.8371 31.4796 23.9055C29.2414 24.7538 28.1625 25.8517 27.1832 27.818C31.5009 29.5864 35.2838 32.0368 37.7537 36.1149C34.0046 33.6199 30.9348 29.8564 25.649 29.9933C25.1205 33.2834 23.4186 35.6217 21.1261 37.3905C23.4349 40.0534 25.6269 42.5447 27.7853 45.0806C30.654 48.4464 34.2365 50.6382 38.6518 51.3707C42.9935 52.0841 47.1523 53.3992 51.2357 54.9533C52.1578 55.3064 53.0897 55.6581 53.9332 56.1615C56.3926 57.6025 57.2619 60.3043 56.1663 62.9123C55.7419 63.9258 55.2522 64.9089 54.7838 65.8989C54.9214 66.0081 55.0704 66.1255 55.208 66.2346C56.0898 65.7107 57.0569 65.2837 57.852 64.6533C60.5094 62.5542 63.3744 61.437 66.8207 62.4481C68.4178 62.9222 69.7187 62.1593 70.4537 60.992C72.8976 57.1282 76.6863 56.7806 80.6585 57.0512C83.1397 57.2193 85.5528 58.0123 87.567 59.5175C89.3883 60.8818 91.4839 61.1749 93.6285 61.3221C95.3741 61.4375 96.8783 60.9529 97.923 59.4235C98.2871 58.885 98.776 58.4376 99.1407 58.0379C98.5334 56.816 98.025 55.5799 97.4319 54.3857ZM38.0596 13.1666C36.3092 12.2087 34.4786 12.0658 32.6373 13.1347C27.953 15.8731 23.1166 18.4053 19.1491 22.1513C18.0515 23.1924 17.2778 24.5736 16.45 25.8634C15.795 26.8902 15.4209 28.1047 14.6836 29.0542C12.2171 32.2268 10.7734 35.8175 9.97412 39.6624C9.6578 41.1959 9.79015 42.8235 9.70215 44.8697C10.4149 44.1619 10.8221 43.7758 11.263 43.3453C11.4236 43.5403 11.618 43.6909 11.5886 43.7646C10.9253 45.5465 10.9666 47.3757 10.8722 49.2442C10.6332 53.8615 12.4063 57.6729 15.3979 60.9814C19.1778 65.1683 23.0748 69.2589 27.0238 73.2924C28.1456 74.4401 29.5061 75.4939 30.9542 76.1879C36.435 78.84 41.8948 81.5547 47.5395 83.8162C53.0015 86.0049 58.7648 86.0868 64.1899 83.6384C69.1322 81.4084 74.3205 80.2142 79.5599 79.0921C84.603 78.0081 88.6404 75.4721 92.1827 71.8567C94.1645 69.8352 96.5038 68.1093 98.8349 66.4639C100.416 65.3433 101.808 64.1804 102.636 62.4145C103.418 60.7543 103.435 60.732 101.922 59.0653C100.66 59.2076 99.914 60.0988 99.2219 61.0119C98.1077 62.4819 96.6313 63.2204 94.7905 63.3468C91.7593 63.5556 88.9362 63.1292 86.2932 61.4072C83.0122 59.2713 79.3543 58.3998 75.4342 59.4905C74.3281 59.7987 73.1967 60.1403 72.5938 61.4473C73.8933 63.1745 74.4568 65.1169 73.1885 67.6506C72.5413 66.0278 72.0071 64.6863 71.4728 63.3448C69.9378 63.5561 69.6461 64.1735 69.9889 65.3839C70.8583 68.4924 69.8431 71.3666 68.9905 74.2471C68.7868 74.2368 68.5831 74.2264 68.3794 74.2161C68.4057 73.7164 68.4236 73.2277 68.4498 72.7279C68.5132 71.5979 68.6063 70.4636 68.6286 69.3295C68.7134 64.3575 66.1273 63.4209 61.4451 64.552C60.6059 64.7523 59.839 65.3688 59.0957 65.8727C57.7404 66.812 56.4345 67.7442 54.7045 68.0034C54.0713 68.0947 53.4246 68.7037 52.9883 69.2328C52.217 70.1574 51.5947 71.1993 50.5373 72.0362C50.9388 70.9368 51.3715 69.8428 51.7305 68.7296C52.1343 67.5108 52.4745 66.2715 52.8259 65.0404C53.0909 64.1094 53.2922 63.1579 53.5883 62.2324C54.249 60.1632 53.8238 58.8754 51.7632 58.1407C48.122 56.8403 44.4165 55.7178 40.7125 54.6051C39.5373 54.2487 38.2811 54.1619 37.0765 53.8792C34.4775 53.2619 32.0351 53.6238 30.203 55.5643C28.5469 57.3306 27.1847 59.3719 25.7273 61.3179C25.4586 61.684 25.3162 62.1509 25.1256 62.5652C24.7261 58.1392 26.263 55.5766 31.3826 51.6943C28.4529 50.083 26.2716 47.7985 24.4622 45.1627C23.6741 44.0165 22.8776 42.8815 22.1192 41.731C20.7192 39.6017 18.8241 38.8928 16.3596 39.7142C15.378 40.0442 14.3807 40.3367 13.029 40.7596C14.5438 37.9821 16.891 37.5247 19.1433 37.3787C20.0028 36.2331 20.8251 35.3111 21.4177 34.2734C22.1312 33.0298 22.6576 31.6842 23.2378 30.3607C24.7851 26.8543 26.3252 23.2994 30.2887 21.756C33.0775 20.6696 35.6443 19.2482 38.0657 17.5303C39.043 16.834 40.198 16.3798 41.6051 15.6513C40.306 14.7374 39.2586 13.8171 38.0596 13.1666ZM59.031 17.7523C57.2452 16.4226 55.2518 15.5295 53.0407 15.005C50.0015 14.2824 46.9998 13.4057 43.9761 12.6511C42.8322 12.3696 41.6479 12.2229 40.1846 11.9676C41.1289 13.2797 41.7665 14.2988 42.5395 15.2091C42.8691 15.5881 43.4656 15.8593 43.9722 15.935C46.5462 16.318 48.8227 17.2794 50.9978 18.7117C52.2541 19.5425 53.8277 20.1291 55.3277 20.3593C57.6328 20.7016 59.5834 21.5116 61.2429 23.0778C61.5254 23.3446 61.9121 23.4971 62.4224 23.8005C62.9013 22.9479 63.3155 22.2037 63.762 21.4053C62.1249 20.1236 60.5983 18.9053 59.031 17.7523Z" fill="#DAE6DA"/>
<path d="M81.5498 1.87915C82.4678 0.854084 83.4155 -0.175277 84.142 -1.33146C85.5305 -3.53533 86.8636 -5.7709 88.0423 -8.09332C89.6897 -11.3364 92.7189 -12.7748 95.819 -14.1441C96.2172 -14.3206 96.7293 -14.2754 97.3738 -14.3583C96.9387 -12.4704 95.7521 -11.4166 94.3689 -10.7311C92.2151 -9.65692 90.7028 -8.01054 89.3668 -6.13166C88.0898 -4.33073 86.7789 -2.55466 85.5785 -0.71516C83.7779 2.04408 81.0768 3.85186 78.5576 5.86159C79.0713 4.16075 80.4417 3.12008 81.5498 1.87915Z" fill="#DAE6DA"/>
<path d="M90.2857 48.0355C91.5091 50.5375 92.503 52.5865 93.5652 54.7545C90.9174 53.9458 89.5166 51.2711 90.2857 48.0355Z" fill="#DAE6DA"/>
</svg>
