<svg width="171" height="141" viewBox="0 0 171 141" fill="none" xmlns="http://www.w3.org/2000/svg">
<path d="M215.924 59.8034C213.967 60.5096 211.996 61.2723 209.966 61.6396C205.433 62.4446 201.951 64.5632 199.706 68.5602C199.49 68.9557 198.986 69.1958 198.569 69.5489C198.209 69.1393 197.849 68.9133 197.705 68.5743C194.453 61.1452 188.653 56.0889 181.602 52.4025C177.241 50.1145 172.564 48.4338 168.031 46.4847C166.002 45.609 163.972 44.7192 161.914 43.9282C151.467 39.9029 141.191 35.2845 130.47 32.0925C121.389 29.3948 111.819 28.3073 102.436 26.5842C94.9814 25.2141 87.4693 24.4797 79.8564 24.3385C71.0202 24.169 62.328 26.0898 53.3336 24.6209C47.0878 23.5899 41.3889 22.4035 36.4528 18.4065C33.4738 15.9913 29.9336 14.5648 26.1056 14.1411C21.9034 13.675 18.3632 12.1355 15.3842 9.14121C11.2828 5.01705 5.699 3.35043 0.877975 0.39855C0.590164 0.723398 0.287949 1.04825 0.000122027 1.3731C1.23776 2.37589 2.36028 3.60466 3.74182 4.3391C6.47614 5.79386 8.54845 7.79945 10.189 10.3559C11.3691 12.192 12.5348 14.1128 14.0459 15.6664C15.9023 17.5873 17.8451 19.9883 20.2196 20.7651C26.451 22.7849 30.6676 26.8101 34.2798 31.8524C37.0572 35.7223 40.0218 39.451 42.9 43.2503C43.3749 43.8717 43.8354 44.5073 44.6126 45.5666C38.8561 43.7305 33.2148 43.3209 29.0414 39.3239C28.5953 38.9002 27.9189 38.66 27.3 38.4623C23.0835 37.1488 20.8672 33.9992 19.0108 30.2846C17.4709 27.1915 15.5137 24.2961 13.571 21.429C12.0311 19.1409 9.68533 17.8274 7.1525 17.0223C8.24623 18.9149 9.41191 20.7086 10.3329 22.6012C11.916 25.8638 12.6931 29.3242 13.1248 32.9399C13.8012 38.5471 16.2189 43.1514 21.8602 45.722C23.7886 46.5976 25.3716 48.3208 26.9403 49.8179C29.9336 52.6568 32.8262 55.5945 35.7332 58.5182C38.6546 61.4418 41.6624 64.2948 44.3823 67.3879C47.5339 70.9754 50.5129 74.7182 53.3911 78.5316C57.5214 84.0117 62.9037 87.9805 68.7752 91.4267C79.8852 97.9237 90.9087 104.576 102.105 110.918C106.609 113.474 111.344 115.734 116.194 117.57C124.354 120.649 132.672 123.347 140.975 126.073C148.185 128.445 155.525 129.067 162.979 127.174C164.606 126.765 166.189 126.228 167.772 125.762C168.477 126.666 169.081 127.344 169.571 128.092C177.284 140.253 186.969 150.789 197.273 160.831C198.094 161.622 198.813 162.597 199.317 163.6C202.109 169.108 204.944 174.602 207.534 180.195C209.146 183.67 211.621 185.845 215.435 186.268C219.191 186.692 222.314 188.387 224.458 191.169C225.437 192.44 226.502 193.542 227.639 194.503L227.639 190.124C227.38 189.842 227.106 189.559 226.847 189.263C224.357 186.268 220.702 184.898 216.874 184.418C212.773 183.896 210.427 181.833 208.93 178.048C207.347 174.023 205.073 170.252 202.857 165.859C203.951 166.481 204.915 166.721 205.318 167.3C208.038 171.382 212.283 173.825 215.896 176.932C219.652 180.153 223.595 183.119 227.639 185.958L227.639 182.78C205.16 166.919 185.602 147.724 169.743 124.152C170.722 123.092 171.413 122.358 172.42 121.256C178.695 128.982 183.242 137.711 190.797 144.066C185.962 136.284 181.127 128.488 175.946 120.155C177.227 120.578 178.09 120.691 178.752 121.101C181.53 122.768 184.365 124.406 186.998 126.284C193.042 130.578 199.245 134.589 206.066 137.626C208.326 138.643 209.938 140.083 210.6 142.555C211.031 144.151 211.751 145.705 212.586 147.145C214.845 151.058 218.097 153.445 222.904 153.741C224.674 153.854 226.228 154.193 227.624 154.758L227.624 150.521C226.617 150.253 225.538 150.055 224.386 149.998C223.609 149.97 222.846 149.73 222.069 149.617C216.903 148.854 213.463 146.594 212.773 140.436C217.594 143.36 222.573 145.309 227.624 146.863L227.624 144.603C224.789 143.304 221.954 142.004 219.134 140.677C217.133 139.73 215.248 138.558 213.204 137.696C204.872 134.194 197.302 129.434 189.905 124.335C185.645 121.398 181.098 118.883 176.924 116.313C177.457 113.954 178.047 111.384 178.709 108.46C184.71 107.415 190.74 109.209 197.705 109.308C196.396 108.545 195.777 108.022 195.072 107.796C190.351 106.285 185.631 104.774 180.522 105.127C179.86 105.169 179.155 104.421 178.464 104.025C179.069 103.517 179.63 102.924 180.306 102.556C180.724 102.33 181.328 102.415 181.846 102.401C186.322 102.217 186.322 102.231 189.732 99.6468C192.711 101.822 195.791 103.955 198.713 106.271C201.015 108.093 202.483 110.536 202.872 113.474C203.418 117.655 205.433 120.889 208.901 123.403C210.24 124.364 211.146 125.889 212.341 127.047C213.348 128.022 214.37 129.406 215.593 129.674C219.594 130.592 223.508 132.202 227.595 132.569L227.595 128.784C226.228 128.657 224.861 128.431 223.465 128.233C218.5 127.541 215.176 125.296 211.621 121.878C206.009 116.482 206.628 115.677 205.318 109.392C206.023 109.533 206.656 109.534 207.203 109.774C213.751 112.669 220.616 113.997 227.61 114.646L227.61 112.528C216.126 111.115 205.304 107.457 195.921 100.579C192.309 97.9378 189.315 94.4916 185.861 91.229C188.552 89.3647 190.754 87.8393 192.841 86.3845C195.503 89.6471 198.18 92.7403 200.655 96.0029C202.742 98.757 205.419 100.664 208.484 102.217C214.629 105.339 221.048 107.344 227.624 108.672L227.624 105.918C226.128 105.649 224.617 105.381 223.12 105.113C222.515 105 221.94 104.661 220.688 104.152C223.034 103.545 225.35 102.98 227.624 102.528L227.624 99.5338C226.329 99.7457 225.034 99.9999 223.753 100.311C218.4 101.582 212.931 101.37 207.793 98.9124C205.102 97.6271 203.433 95.3673 201.447 92.5708C202.915 92.938 203.865 93.1216 204.786 93.4041C212.24 95.7486 219.911 96.5254 227.639 96.243L227.639 92.9945C227.365 93.0086 227.092 93.0227 226.818 93.051C219.983 93.4323 213.262 92.599 206.671 90.7205C204.8 90.1838 202.771 90.0567 200.972 89.3646C199.331 88.7432 197.72 87.7969 196.424 86.6387C195.144 85.5088 194.539 84.0399 195.762 82.1897C196.669 80.8338 197 79.1249 197.547 77.6419C207.434 78.1786 217.234 79.2802 226.862 75.6928C227.121 75.5939 227.38 75.5092 227.639 75.4244L227.639 72.1477C221.508 74.2945 215.392 76.06 208.743 75.0431C207.218 74.8171 205.62 75.1278 204.052 75.0431C202.152 74.9301 200.267 74.6617 198.382 74.464C198.295 74.1109 198.209 73.7719 198.123 73.4188C200.958 72.8256 202.541 70.9613 204.066 68.8003C205.03 67.4444 206.8 66.4558 208.412 65.8061C211.78 64.4502 215.277 63.4192 218.472 62.3457C220.112 63.3627 221.465 64.6762 223.062 65.0716C224.732 65.4812 226.286 64.9304 227.639 64.0123L227.639 59.8317C226.415 60.8204 224.919 61.4983 223.278 61.9644C220.673 58.5464 219.896 58.3769 215.924 59.8034ZM184.595 93.3476C185.559 94.3504 186.365 95.5085 187.286 96.6667C185.055 100.494 180.896 98.644 178.162 101.13C176.881 98.4604 175.744 96.1017 174.464 93.4606C177.371 93.0369 179.99 92.5849 182.652 92.3448C183.271 92.2742 184.106 92.8391 184.595 93.3476ZM168.765 91.8222C170.089 94.3221 171.513 96.7655 172.852 99.2655C175.154 103.601 175.399 108.389 173.888 112.74C172.233 117.542 168.477 121.228 163.426 122.965C156.791 125.253 149.984 124.872 143.408 122.753C133.607 119.59 123.893 116.214 114.208 112.711C111.042 111.567 108.034 109.929 105.127 108.234C94.2331 101.907 83.411 95.452 72.5601 89.0398C72.2291 88.8421 71.9701 88.5455 71.6822 88.2912C79.5686 80.4525 80.6767 78.4187 79.4966 72.6844C78.9929 74.012 78.4892 75.3255 77.9855 76.6532C76.6616 80.2124 74.7044 83.3055 71.4088 85.4947C69.6819 86.6387 68.214 86.6529 66.4151 85.4382C62.069 82.4863 58.3992 78.8848 55.2476 74.7606C48.9875 66.5405 42.569 58.4617 34.1646 52.1624C33.1429 51.3997 32.2506 50.397 31.5023 49.38C29.0989 46.1033 26.2927 43.4057 22.479 41.6261C18.8957 39.9453 17.5429 36.6403 17.1975 32.9258C19.3562 37.5866 23.803 39.2532 27.6886 41.8662C34.1071 46.1739 41.4753 47.8688 48.4406 50.6512C53.7077 52.7556 59.3778 52.9392 65.0336 52.6144C68.1564 52.4308 71.3081 52.2754 74.4165 52.4449C81.425 52.8263 88.1025 54.4223 93.9884 58.4193C105.631 66.3287 119.058 70.3822 132.053 75.3538C140.083 78.4187 148.07 81.5824 156.115 84.5625C158.403 85.41 159.367 86.78 159.439 89.0963C159.497 91.1442 160.015 93.1781 159.957 95.2119C159.914 97.0763 159.382 98.9265 159.079 100.706C161.368 99.6468 162.361 98.3615 162.778 95.0848C163.066 92.712 163.008 90.2827 163.109 87.7687C165.743 88.3901 167.599 89.6189 168.765 91.8222ZM187.977 86.0597C184.71 88.0088 181.443 89.8166 177.471 89.859C174.219 89.9014 171.369 89.3647 169.081 86.667C167.887 85.2546 166.03 84.2518 164.275 83.4609C158.82 81.0033 153.323 78.6164 147.739 76.4272C144.847 75.2973 141.767 74.6194 138.745 73.7719C137.737 73.4894 136.629 73.5036 135.694 73.1222C124.613 68.645 113.56 64.1112 102.191 59.4786C104.94 53.8573 108.351 49.2247 106.307 43.2362C105.746 45.7361 105.372 48.3066 104.566 50.7218C103.717 53.25 102.465 55.651 101.242 58.4052C98.9822 57.2188 97.0538 56.2019 94.9526 55.1002C96.0176 51.4704 98.3058 48.123 97.1545 43.4339C95.96 47.3886 94.9527 50.6794 93.8589 54.281C92.1608 53.6454 90.9519 53.25 89.7863 52.7698C82.5475 49.8038 74.9922 48.5185 67.1778 49.1964C55.8089 50.1851 47.6491 45.0723 41.2307 36.4567C38.5395 32.841 35.9779 29.1264 33.2148 25.5672C30.3654 21.8809 26.5085 19.494 21.9753 18.2935C17.6292 17.1353 14.8518 14.3388 12.6787 10.5818C13.1104 10.483 13.4414 10.3276 13.5134 10.4124C17.1399 14.1834 21.5724 16.1184 26.782 17.1071C29.9768 17.7144 33.1716 19.4657 35.8196 21.4007C40.727 24.9882 45.9509 26.9231 52.0959 27.1067C57.4207 27.2621 62.731 28.053 68.5738 28.6039C68.2572 31.2874 67.9549 33.9003 67.6527 36.5132C69.6387 34.2675 70.3583 31.5134 70.4014 28.1378C71.8118 28.0672 73.0638 27.9542 74.3158 27.9259C83.3534 27.7988 92.3191 28.3214 101.213 30.0304C104.422 30.6518 107.631 31.3156 110.869 31.6264C113.316 31.8665 114.395 33.0388 114.553 35.228C114.755 38.1516 114.956 41.0893 114.999 44.0271C115.028 46.301 114.827 48.5609 114.712 51.1738C118.151 47.897 118.885 43.8294 118.237 33.0105C124.123 33.7732 129.779 35.2421 135.291 37.2053C142.904 39.9312 150.474 42.7136 158.014 45.609C163.109 47.5581 168.074 49.8603 173.183 51.7811C176.234 52.9251 177.86 54.9872 178.205 58.0097C178.623 61.5548 178.81 65.1281 179.083 68.5885C181.141 67.2043 181.645 64.7044 181.271 56.2442C182.436 56.8798 183.501 57.2188 184.249 57.8967C187.372 60.7921 190.438 63.744 193.431 66.7806C194.107 67.4727 194.697 68.5179 194.784 69.4641C195.287 74.8171 194.122 82.4016 187.977 86.0597Z" fill="#DAE6DA"/>
</svg>
